<svg width="180" height="60" viewBox="0 0 180 60" fill="none" xmlns="http://www.w3.org/2000/svg">
<g clip-path="url(#clip0_1247_67386)">
<path d="M11.1922 19.3993H0V13.8069H28.6371V19.3993H17.4449V48.1452H11.1935V19.3993H11.1922Z" fill="#5213B9"/>
<path d="M31.46 22.2438H37.6107V28.0812C38.4505 26.1187 39.6441 24.5494 41.1903 23.3721C42.7365 22.1948 44.6856 21.6559 47.0389 21.7539V28.0322H46.6864C45.3416 28.0322 44.1153 28.2454 43.006 28.6705C41.8967 29.0956 40.9385 29.7339 40.1328 30.5841C39.3256 31.4343 38.7036 32.5056 38.2667 33.7968C37.8298 35.0893 37.612 36.5857 37.612 38.2847V48.1452H31.4613V22.2452L31.46 22.2438Z" fill="#5213B9"/>
<path d="M50.0332 21.1023H56.1839V48.1439H50.0332V21.1023Z" fill="#5213B9"/>
<path d="M87.1201 29.4054C86.4137 27.7382 85.4813 26.3318 84.3217 25.1863C83.1621 24.0421 81.8432 23.1747 80.3637 22.5868C78.8842 21.9988 77.3557 21.7035 75.7755 21.7035C73.6236 21.7035 71.8256 22.1696 70.3802 23.1019C68.9347 24.0342 67.7247 25.1863 66.7502 26.5596L66.7964 13.3328H60.6484V48.1438H66.7992V44.122C67.7383 45.3324 68.9279 46.3958 70.3706 47.3109C71.812 48.2259 73.6236 48.6841 75.8027 48.6841C77.3788 48.6841 78.9128 48.3901 80.4045 47.8008C81.8963 47.2115 83.2219 46.3468 84.3775 45.2013C85.5344 44.0571 86.4559 42.6508 87.1446 40.9822C87.8319 39.3149 88.1763 37.4014 88.1763 35.2428V35.1448C88.1763 32.9862 87.8238 31.0727 87.1174 29.4054H87.1201ZM82.0283 35.2428C82.0283 36.5181 81.8268 37.6702 81.4226 38.7005C81.0197 39.7307 80.4726 40.5981 79.7839 41.3C79.0951 42.0032 78.288 42.5501 77.3639 42.9434C76.4397 43.3354 75.4556 43.5314 74.4144 43.5314C73.3732 43.5314 72.3809 43.3354 71.4404 42.9434C70.4986 42.5514 69.6765 41.9952 68.9701 41.2762C68.2637 40.5571 67.7002 39.6817 67.281 38.6515C66.8604 37.6212 66.6508 36.485 66.6508 35.2428V35.1448C66.6508 33.9026 66.8604 32.7744 67.281 31.76C67.7002 30.7469 68.2637 29.8702 68.9701 29.1353C69.6765 28.399 70.4986 27.8362 71.4404 27.4429C72.3809 27.0509 73.3732 26.8536 74.4144 26.8536C75.4556 26.8536 76.4397 27.0495 77.3639 27.4429C78.288 27.8348 79.0951 28.391 79.7839 29.1101C80.4726 29.8292 81.0197 30.7045 81.4226 31.7348C81.8255 32.7651 82.0283 33.9013 82.0283 35.1435V35.2415V35.2428Z" fill="#5213B9"/>
<path d="M103.607 48.7332C101.69 48.7332 99.9006 48.4061 98.2374 47.7519C96.5742 47.0977 95.1287 46.1826 93.9024 45.0053C92.6747 43.8281 91.7097 42.4138 91.0033 40.7624C90.2969 39.111 89.9443 37.2875 89.9443 35.2932V35.1952C89.9443 33.3306 90.2628 31.5812 90.9025 29.9458C91.5409 28.3116 92.4406 26.8801 93.6002 25.6538C94.7598 24.4275 96.1291 23.4635 97.7093 22.759C99.2895 22.0558 101.037 21.7048 102.952 21.7048C105.07 21.7048 106.927 22.0809 108.523 22.8331C110.12 23.5853 111.447 24.5984 112.506 25.875C113.565 27.1502 114.362 28.6308 114.9 30.3139C115.437 31.9984 115.707 33.7716 115.707 35.6361C115.707 35.8983 115.699 36.1685 115.681 36.4453C115.663 36.7234 115.639 37.0094 115.605 37.3034H96.0433C96.3795 39.4289 97.2452 41.0564 98.6403 42.1833C100.034 43.3116 101.723 43.8757 103.708 43.8757C105.22 43.8757 106.53 43.6149 107.64 43.0918C108.749 42.5687 109.841 41.8006 110.917 40.7862L114.497 43.8757C113.219 45.347 111.698 46.5243 109.935 47.4076C108.171 48.2909 106.061 48.7318 103.607 48.7318V48.7332ZM109.657 33.3796C109.556 32.4314 109.337 31.5402 109.001 30.7059C108.665 29.8716 108.211 29.1525 107.64 28.5473C107.068 27.9421 106.388 27.4601 105.598 27.0999C104.807 26.741 103.909 26.5596 102.9 26.5596C101.018 26.5596 99.4637 27.19 98.236 28.448C97.0083 29.7074 96.2611 31.3508 95.993 33.3783H109.657V33.3796Z" fill="#5213B9"/>
<path d="M178.639 24.1322C177.731 22.0558 176.446 20.2495 174.781 18.712C173.118 17.1758 171.134 15.9734 168.832 15.106C166.529 14.2399 164 13.8069 161.244 13.8069H147.618L136.879 30.0438L126.14 13.8069H119.535V48.1439H125.686V23.6171L136.727 39.707H136.928L148.07 23.5191V48.1439H161.241C163.998 48.1439 166.526 47.7029 168.829 46.8196C171.131 45.9363 173.115 44.7273 174.779 43.1898C176.443 41.6523 177.728 39.8381 178.636 37.7444C179.544 35.652 179.997 33.3955 179.997 30.9747V30.8767C179.997 28.4573 179.544 26.2087 178.636 24.1322H178.639ZM173.446 31.074C173.446 32.7492 173.152 34.3 172.564 35.7288C171.976 37.1577 171.153 38.3893 170.094 39.4236C169.035 40.4578 167.75 41.263 166.237 41.8377C164.724 42.4124 163.043 42.6985 161.195 42.6985H154.237V19.251H161.195C163.043 19.251 164.724 19.5476 166.237 20.1382C167.749 20.7302 169.035 21.5419 170.094 22.5775C171.153 23.6118 171.976 24.8513 172.564 26.2961C173.152 27.7409 173.446 29.3008 173.446 30.976V31.0754V31.074Z" fill="#58595B"/>
<path d="M9.39648 53.4806H14.2896V54.4963H10.5452V56.2629H13.8663V57.2786H10.5452V59.8874H9.39785V53.4792L9.39648 53.4806Z" fill="url(#paint0_linear_1247_67386)"/>
<path d="M16.8291 53.4806H19.7649C20.1787 53.4806 20.5462 53.5375 20.8661 53.6501C21.1859 53.7627 21.4527 53.9202 21.6664 54.1215C21.842 54.299 21.9767 54.5029 22.0706 54.7347C22.1645 54.9664 22.2122 55.2233 22.2122 55.5041V55.5226C22.2122 55.7848 22.1727 56.0219 22.0951 56.2324C22.0162 56.443 21.9086 56.6297 21.7698 56.7913C21.6323 56.9528 21.4677 57.0905 21.2757 57.2031C21.0838 57.3157 20.8729 57.4031 20.6401 57.464L22.4191 59.8901H21.0553L19.4315 57.656H17.9779V59.8901H16.8305V53.4819L16.8291 53.4806ZM19.6765 56.6575C20.0916 56.6575 20.4224 56.5608 20.6673 56.3675C20.9123 56.1742 21.0362 55.9119 21.0362 55.5809V55.5623C21.0362 55.2127 20.9164 54.9479 20.6769 54.7665C20.4373 54.5864 20.1011 54.495 19.667 54.495H17.9779V56.6562H19.6765V56.6575Z" fill="url(#paint1_linear_1247_67386)"/>
<path d="M28.0365 60C27.5289 60 27.0647 59.9126 26.6442 59.7391C26.2236 59.5657 25.8629 59.3286 25.5621 59.0293C25.2613 58.73 25.0258 58.3804 24.8571 57.9805C24.6883 57.5806 24.6025 57.1555 24.6025 56.7039V56.6854C24.6025 56.2338 24.6869 55.8074 24.8571 55.4075C25.0258 55.0075 25.264 54.6566 25.5716 54.3547C25.8792 54.0527 26.2426 53.813 26.6632 53.6356C27.0838 53.4581 27.5479 53.3707 28.0556 53.3707C28.5633 53.3707 29.0274 53.4581 29.448 53.6316C29.8686 53.8051 30.2292 54.0421 30.53 54.3414C30.8308 54.6407 31.0663 54.9903 31.2351 55.3902C31.4039 55.7902 31.4896 56.2153 31.4896 56.6668V56.6854C31.4896 57.1369 31.4052 57.5634 31.2351 57.962C31.0663 58.3619 30.8268 58.7128 30.5205 59.0148C30.2129 59.3167 29.8495 59.5564 29.4289 59.7338C29.0084 59.9113 28.5442 60 28.0365 60ZM28.0542 58.9644C28.3795 58.9644 28.6776 58.9049 28.9485 58.7857C29.2207 58.6665 29.4534 58.5049 29.6467 58.301C29.84 58.097 29.9924 57.8574 30.1013 57.5819C30.2102 57.3078 30.266 57.0138 30.266 56.7026V56.6841C30.266 56.3728 30.2115 56.0789 30.1013 55.8008C29.9924 55.5227 29.8386 55.2816 29.6426 55.0777C29.4453 54.8738 29.2098 54.7096 28.9349 54.5877C28.6599 54.4659 28.3605 54.405 28.0352 54.405C27.7099 54.405 27.4118 54.4646 27.141 54.5838C26.8687 54.7029 26.636 54.8645 26.4427 55.0684C26.2494 55.2724 26.0984 55.5121 25.9881 55.7875C25.8792 56.0616 25.8248 56.3556 25.8248 56.6668V56.6854C25.8248 56.9966 25.8792 57.2906 25.9881 57.5687C26.097 57.8468 26.2508 58.0878 26.4468 58.2917C26.6428 58.497 26.8796 58.6599 27.1546 58.7817C27.4295 58.9035 27.7289 58.9644 28.0542 58.9644Z" fill="url(#paint2_linear_1247_67386)"/>
<path d="M34.1514 53.4806H35.3845L37.3894 56.5105L39.3942 53.4806H40.6274V59.8887H39.48V55.2922L37.4003 58.3128H37.3622L35.3015 55.3094V59.8874H34.1541V53.4792L34.1514 53.4806Z" fill="url(#paint3_linear_1247_67386)"/>
<path d="M50.5994 60C50.1162 60 49.6711 59.9139 49.2628 59.7431C48.8545 59.5723 48.5006 59.3392 48.2012 59.0426C47.9017 58.7459 47.6663 58.3977 47.4961 57.9938C47.326 57.5912 47.2402 57.1608 47.2402 56.7026V56.6841C47.2402 56.2259 47.3233 55.7981 47.492 55.3982C47.6594 54.9983 47.8949 54.6473 48.1971 54.3454C48.5006 54.0435 48.8586 53.8051 49.2723 53.6316C49.6861 53.4581 50.1448 53.3707 50.6457 53.3707C50.9465 53.3707 51.2214 53.3946 51.4691 53.4436C51.7168 53.4926 51.9441 53.5614 52.151 53.6488C52.3579 53.7376 52.5498 53.8422 52.7254 53.9653C52.901 54.0872 53.067 54.2209 53.2235 54.3679L52.4804 55.2009C52.2163 54.9625 51.9373 54.7705 51.6433 54.6235C51.348 54.4765 51.0131 54.4037 50.6361 54.4037C50.3217 54.4037 50.0318 54.4633 49.765 54.5824C49.4983 54.7016 49.2682 54.8632 49.0736 55.0671C48.879 55.2711 48.7279 55.5107 48.6217 55.7862C48.5156 56.0616 48.4611 56.3543 48.4611 56.6655V56.6841C48.4611 56.9953 48.5142 57.2892 48.6217 57.5673C48.7279 57.8454 48.879 58.0878 49.0736 58.2957C49.2682 58.5036 49.4983 58.6665 49.765 58.7857C50.0318 58.9049 50.3217 58.9644 50.6361 58.9644C51.0376 58.9644 51.382 58.8903 51.6705 58.7406C51.9591 58.591 52.2449 58.3884 52.5267 58.1315L53.2698 58.8638C53.101 59.0412 52.9227 59.1975 52.7376 59.3352C52.5525 59.473 52.3538 59.5908 52.1401 59.6928C51.9264 59.7934 51.6937 59.8702 51.4392 59.9219C51.1846 59.9735 50.9043 60 50.5967 60H50.5994Z" fill="url(#paint4_linear_1247_67386)"/>
<path d="M55.7373 53.4806H58.6731C59.0869 53.4806 59.4544 53.5375 59.7743 53.6501C60.0941 53.7627 60.3609 53.9202 60.5746 54.1215C60.7502 54.299 60.8849 54.5029 60.9788 54.7347C61.0727 54.9664 61.1204 55.2233 61.1204 55.5041V55.5226C61.1204 55.7848 61.0809 56.0219 61.0033 56.2324C60.9244 56.443 60.8168 56.6297 60.678 56.7913C60.5405 56.9528 60.3759 57.0905 60.1839 57.2031C59.992 57.3157 59.7811 57.4031 59.5483 57.464L61.3273 59.8901H59.9635L58.3397 57.656H56.8861V59.8901H55.7387V53.4819L55.7373 53.4806ZM58.5847 56.6575C58.9998 56.6575 59.3305 56.5608 59.5755 56.3675C59.8205 56.1742 59.9444 55.9119 59.9444 55.5809V55.5623C59.9444 55.2127 59.8246 54.9479 59.5851 54.7665C59.3455 54.5864 59.0093 54.495 58.5752 54.495H56.8861V56.6562H58.5847V56.6575Z" fill="url(#paint5_linear_1247_67386)"/>
<path d="M63.8012 53.4806H68.6752V54.4963H64.9486V56.1437H68.2519V57.1594H64.9486V58.8717H68.7215V59.8874H63.7998V53.4792L63.8012 53.4806Z" fill="url(#paint6_linear_1247_67386)"/>
<path d="M71.3662 53.4806H73.8216C74.3361 53.4806 74.8084 53.5614 75.2371 53.7229C75.6672 53.8845 76.0374 54.1096 76.3478 54.3957C76.6581 54.683 76.8976 55.0194 77.0678 55.4074C77.2365 55.7954 77.3223 56.2152 77.3223 56.6668V56.6853C77.3223 57.1369 77.2379 57.558 77.0678 57.9487C76.899 58.3393 76.6581 58.6783 76.3478 58.9644C76.0374 59.2518 75.6672 59.4769 75.2371 59.6424C74.807 59.8066 74.3347 59.8901 73.8216 59.8901H71.3662V53.4819V53.4806ZM73.8121 58.873C74.1564 58.873 74.4708 58.82 74.7526 58.7128C75.0343 58.6055 75.2752 58.4559 75.4726 58.2625C75.6699 58.0692 75.8237 57.8401 75.934 57.5726C76.0442 57.3064 76.0987 57.0164 76.0987 56.7039V56.6853C76.0987 56.3728 76.0442 56.0815 75.934 55.8113C75.8237 55.5412 75.6699 55.3107 75.4726 55.1174C75.2752 54.924 75.0357 54.7731 74.7526 54.6618C74.4708 54.5519 74.1564 54.4963 73.8121 54.4963H72.5136V58.873H73.8121Z" fill="url(#paint7_linear_1247_67386)"/>
<path d="M80.0518 53.4806H81.1992V59.8887H80.0518V53.4806Z" fill="url(#paint8_linear_1247_67386)"/>
<path d="M84.2289 53.4806H87.1784C87.9365 53.4806 88.5095 53.67 88.8974 54.0487C89.1914 54.3361 89.3384 54.6896 89.3384 55.1108V55.1293C89.3384 55.3253 89.3125 55.4975 89.2594 55.6471C89.2064 55.7967 89.1383 55.9278 89.0539 56.0404C88.9695 56.153 88.8702 56.2523 88.7545 56.3384C88.6388 56.4231 88.5231 56.4973 88.4047 56.5582C88.598 56.6257 88.7735 56.7039 88.9328 56.7913C89.092 56.88 89.2295 56.9846 89.3438 57.1078C89.4595 57.2296 89.548 57.3739 89.6106 57.5382C89.6732 57.7037 89.7045 57.8957 89.7045 58.1155V58.1341C89.7045 58.4214 89.646 58.6744 89.5303 58.8942C89.4146 59.114 89.2499 59.2968 89.0376 59.4438C88.8253 59.5908 88.568 59.702 88.2672 59.7775C87.9664 59.8543 87.6343 59.8914 87.2709 59.8914H84.2275V53.4832L84.2289 53.4806ZM86.9524 56.1821C87.3281 56.1821 87.6275 56.1106 87.8521 55.9662C88.0767 55.8232 88.1896 55.6047 88.1896 55.3121V55.2935C88.1896 55.0379 88.0916 54.838 87.8943 54.6936C87.6969 54.5506 87.4111 54.4791 87.0368 54.4791H85.3763V56.1821H86.9524ZM87.2913 58.8916C87.6847 58.8916 87.995 58.8187 88.2196 58.6717C88.4442 58.5247 88.5571 58.3049 88.5571 58.0122V57.9937C88.5571 57.7196 88.4455 57.5064 88.2237 57.3567C88.0018 57.2071 87.6629 57.1329 87.2056 57.1329H85.3763V58.8902H87.29L87.2913 58.8916Z" fill="url(#paint9_linear_1247_67386)"/>
<path d="M92.3486 53.4806H93.496V59.8887H92.3486V53.4806Z" fill="url(#paint10_linear_1247_67386)"/>
<path d="M102.94 53.4806H104.088V59.8887H102.94V53.4806Z" fill="url(#paint11_linear_1247_67386)"/>
<path d="M96.5264 53.4806H97.6738V58.873H101.136V59.8887H96.5264V53.4806Z" fill="url(#paint12_linear_1247_67386)"/>
<path d="M109.214 54.5241H107.125V53.4806H112.47V54.5241H110.381V59.8887H109.214V54.5241Z" fill="url(#paint13_linear_1247_67386)"/>
<path d="M116.893 57.362L114.277 53.4806H115.641L117.485 56.3185L119.349 53.4806H120.676L118.06 57.3355V59.8901H116.893V57.3633V57.362Z" fill="url(#paint14_linear_1247_67386)"/>
<path d="M128.522 54.5241H126.433V53.4806H131.778V54.5241H129.688V59.8887H128.522V54.5241Z" fill="url(#paint15_linear_1247_67386)"/>
<path d="M137.405 60C136.897 60 136.433 59.9126 136.012 59.7391C135.592 59.5657 135.231 59.3286 134.93 59.0293C134.629 58.73 134.394 58.3804 134.225 57.9805C134.056 57.5806 133.971 57.1555 133.971 56.7039V56.6854C133.971 56.2338 134.055 55.8074 134.225 55.4075C134.394 55.0075 134.632 54.6566 134.94 54.3547C135.247 54.0527 135.611 53.813 136.031 53.6356C136.452 53.4581 136.916 53.3707 137.424 53.3707C137.931 53.3707 138.396 53.4581 138.816 53.6316C139.237 53.8051 139.597 54.0421 139.898 54.3414C140.199 54.6407 140.434 54.9903 140.603 55.3902C140.772 55.7902 140.858 56.2153 140.858 56.6668V56.6854C140.858 57.1369 140.773 57.5634 140.603 57.962C140.434 58.3619 140.195 58.7128 139.889 59.0148C139.581 59.3167 139.218 59.5564 138.797 59.7338C138.377 59.9113 137.912 60 137.405 60ZM137.424 58.9644C137.749 58.9644 138.047 58.9049 138.318 58.7857C138.59 58.6665 138.823 58.5049 139.016 58.301C139.21 58.097 139.362 57.8574 139.471 57.5819C139.58 57.3078 139.636 57.0138 139.636 56.7026V56.6841C139.636 56.3728 139.581 56.0789 139.471 55.8008C139.361 55.5227 139.208 55.2816 139.012 55.0777C138.815 54.8738 138.579 54.7096 138.304 54.5877C138.029 54.4659 137.73 54.405 137.405 54.405C137.079 54.405 136.781 54.4646 136.51 54.5838C136.238 54.7029 136.006 54.8645 135.812 55.0684C135.619 55.2724 135.468 55.5121 135.358 55.7875C135.249 56.0616 135.194 56.3556 135.194 56.6668V56.6854C135.194 56.9966 135.249 57.2906 135.358 57.5687C135.467 57.8468 135.62 58.0878 135.816 58.2917C136.012 58.497 136.249 58.6599 136.524 58.7817C136.799 58.9035 137.098 58.9644 137.424 58.9644Z" fill="url(#paint16_linear_1247_67386)"/>
<path d="M150.541 60C150.058 60 149.613 59.9139 149.204 59.7431C148.796 59.5723 148.442 59.3392 148.143 59.0426C147.843 58.7459 147.608 58.3977 147.438 57.9938C147.267 57.5912 147.182 57.1608 147.182 56.7026V56.6841C147.182 56.2259 147.265 55.7981 147.433 55.3982C147.601 54.9983 147.836 54.6473 148.138 54.3454C148.442 54.0435 148.8 53.8051 149.214 53.6316C149.628 53.4581 150.086 53.3707 150.587 53.3707C150.888 53.3707 151.163 53.3946 151.411 53.4436C151.658 53.4926 151.886 53.5614 152.092 53.6488C152.299 53.7376 152.491 53.8422 152.667 53.9653C152.842 54.0872 153.008 54.2209 153.165 54.3679L152.422 55.2009C152.158 54.9625 151.879 54.7705 151.585 54.6235C151.289 54.4765 150.955 54.4037 150.578 54.4037C150.263 54.4037 149.973 54.4633 149.706 54.5824C149.44 54.7016 149.21 54.8632 149.015 55.0671C148.82 55.2711 148.669 55.5107 148.563 55.7862C148.457 56.0616 148.403 56.3543 148.403 56.6655V56.6841C148.403 56.9953 148.456 57.2892 148.563 57.5673C148.669 57.8454 148.82 58.0878 149.015 58.2957C149.21 58.5036 149.44 58.6665 149.706 58.7857C149.973 58.9049 150.263 58.9644 150.578 58.9644C150.979 58.9644 151.323 58.8903 151.612 58.7406C151.901 58.591 152.186 58.3884 152.468 58.1315L153.211 58.8638C153.042 59.0412 152.864 59.1975 152.679 59.3352C152.494 59.473 152.295 59.5908 152.082 59.6928C151.868 59.7934 151.635 59.8702 151.381 59.9219C151.126 59.9735 150.846 60 150.538 60H150.541Z" fill="url(#paint17_linear_1247_67386)"/>
<path d="M158.011 53.4357H159.084L161.982 59.8902H160.758L160.09 58.3434H156.976L156.298 59.8902H155.112L158.01 53.4357H158.011ZM159.668 57.3449L158.529 54.7811L157.399 57.3449H159.666H159.668Z" fill="url(#paint18_linear_1247_67386)"/>
<path d="M164.372 53.4806H167.308C167.722 53.4806 168.089 53.5375 168.409 53.6501C168.729 53.7627 168.996 53.9202 169.209 54.1215C169.385 54.299 169.52 54.5029 169.614 54.7347C169.708 54.9664 169.755 55.2233 169.755 55.5041V55.5226C169.755 55.7848 169.716 56.0219 169.638 56.2324C169.559 56.443 169.452 56.6297 169.313 56.7913C169.175 56.9528 169.011 57.0905 168.819 57.2031C168.627 57.3157 168.416 57.4031 168.183 57.464L169.962 59.8901H168.598L166.974 57.656H165.521V59.8901H164.373V53.4819L164.372 53.4806ZM167.219 56.6575C167.635 56.6575 167.965 56.5608 168.21 56.3675C168.455 56.1742 168.578 55.9119 168.578 55.5809V55.5623C168.578 55.2127 168.458 54.9479 168.22 54.7665C167.98 54.5864 167.644 54.495 167.21 54.495H165.521V56.6562H167.219V56.6575Z" fill="url(#paint19_linear_1247_67386)"/>
<path d="M172.436 53.4806H177.31V54.4963H173.583V56.1437H176.887V57.1594H173.583V58.8717H177.356V59.8874H172.435V53.4792L172.436 53.4806Z" fill="url(#paint20_linear_1247_67386)"/>
<path d="M53.2111 17.4287C55.5519 17.4287 57.4495 15.5824 57.4495 13.3049C57.4495 11.0274 55.5519 9.18115 53.2111 9.18115C50.8703 9.18115 48.9727 11.0274 48.9727 13.3049C48.9727 15.5824 50.8703 17.4287 53.2111 17.4287Z" fill="url(#paint21_linear_1247_67386)"/>
<path d="M63.5788 9.71225C65.6077 9.71225 67.2524 8.11202 67.2524 6.13805C67.2524 4.16407 65.6077 2.56384 63.5788 2.56384C61.55 2.56384 59.9053 4.16407 59.9053 6.13805C59.9053 8.11202 61.55 9.71225 63.5788 9.71225Z" fill="url(#paint22_linear_1247_67386)"/>
<path d="M74.6669 6.1671C76.3831 6.1671 77.7743 4.81352 77.7743 3.14379C77.7743 1.47406 76.3831 0.120483 74.6669 0.120483C72.9508 0.120483 71.5596 1.47406 71.5596 3.14379C71.5596 4.81352 72.9508 6.1671 74.6669 6.1671Z" fill="url(#paint23_linear_1247_67386)"/>
<path d="M85.188 4.94747C86.5922 4.94747 87.7305 3.83994 87.7305 2.47374C87.7305 1.10753 86.5922 0 85.188 0C83.7838 0 82.6455 1.10753 82.6455 2.47374C82.6455 3.83994 83.7838 4.94747 85.188 4.94747Z" fill="url(#paint24_linear_1247_67386)"/>
<path d="M94.4043 6.02679C95.6529 6.02679 96.6651 5.04199 96.6651 3.82718C96.6651 2.61236 95.6529 1.62756 94.4043 1.62756C93.1557 1.62756 92.1436 2.61236 92.1436 3.82718C92.1436 5.04199 93.1557 6.02679 94.4043 6.02679Z" fill="url(#paint25_linear_1247_67386)"/>
<path d="M101.814 7.71646C102.751 7.71646 103.51 6.97771 103.51 6.06642C103.51 5.15513 102.751 4.41638 101.814 4.41638C100.877 4.41638 100.118 5.15513 100.118 6.06642C100.118 6.97771 100.877 7.71646 101.814 7.71646Z" fill="url(#paint26_linear_1247_67386)"/>
<path d="M107.363 9.10036C107.831 9.10036 108.211 8.73098 108.211 8.27534C108.211 7.81969 107.831 7.45032 107.363 7.45032C106.894 7.45032 106.515 7.81969 106.515 8.27534C106.515 8.73098 106.894 9.10036 107.363 9.10036Z" fill="url(#paint27_linear_1247_67386)"/>
<path d="M111.42 10.953C111.732 10.953 111.985 10.707 111.985 10.4035C111.985 10.0999 111.732 9.85388 111.42 9.85388C111.108 9.85388 110.855 10.0999 110.855 10.4035C110.855 10.707 111.108 10.953 111.42 10.953Z" fill="url(#paint28_linear_1247_67386)"/>
</g>
<defs>
<linearGradient id="paint0_linear_1247_67386" x1="-1.81881" y1="56.7171" x2="180.834" y2="56.2009" gradientUnits="userSpaceOnUse">
<stop stop-color="#5213B9"/>
<stop offset="1" stop-color="#58595B"/>
</linearGradient>
<linearGradient id="paint1_linear_1247_67386" x1="-1.81904" y1="56.7423" x2="180.834" y2="56.2275" gradientUnits="userSpaceOnUse">
<stop stop-color="#5213B9"/>
<stop offset="1" stop-color="#58595B"/>
</linearGradient>
<linearGradient id="paint2_linear_1247_67386" x1="-1.81874" y1="56.7648" x2="180.834" y2="56.25" gradientUnits="userSpaceOnUse">
<stop stop-color="#5213B9"/>
<stop offset="1" stop-color="#58595B"/>
</linearGradient>
<linearGradient id="paint3_linear_1247_67386" x1="-1.81923" y1="56.7899" x2="180.833" y2="56.2751" gradientUnits="userSpaceOnUse">
<stop stop-color="#5213B9"/>
<stop offset="1" stop-color="#58595B"/>
</linearGradient>
<linearGradient id="paint4_linear_1247_67386" x1="-1.81849" y1="56.8257" x2="180.834" y2="56.3109" gradientUnits="userSpaceOnUse">
<stop stop-color="#5213B9"/>
<stop offset="1" stop-color="#58595B"/>
</linearGradient>
<linearGradient id="paint5_linear_1247_67386" x1="-1.8186" y1="56.8469" x2="180.834" y2="56.3307" gradientUnits="userSpaceOnUse">
<stop stop-color="#5213B9"/>
<stop offset="1" stop-color="#58595B"/>
</linearGradient>
<linearGradient id="paint6_linear_1247_67386" x1="-1.81912" y1="56.8667" x2="180.833" y2="56.3519" gradientUnits="userSpaceOnUse">
<stop stop-color="#5213B9"/>
<stop offset="1" stop-color="#58595B"/>
</linearGradient>
<linearGradient id="paint7_linear_1247_67386" x1="-1.81895" y1="56.884" x2="180.834" y2="56.3692" gradientUnits="userSpaceOnUse">
<stop stop-color="#5213B9"/>
<stop offset="1" stop-color="#58595B"/>
</linearGradient>
<linearGradient id="paint8_linear_1247_67386" x1="-1.8187" y1="56.9052" x2="180.834" y2="56.3903" gradientUnits="userSpaceOnUse">
<stop stop-color="#5213B9"/>
<stop offset="1" stop-color="#58595B"/>
</linearGradient>
<linearGradient id="paint9_linear_1247_67386" x1="-1.81852" y1="56.9184" x2="180.834" y2="56.4036" gradientUnits="userSpaceOnUse">
<stop stop-color="#5213B9"/>
<stop offset="1" stop-color="#58595B"/>
</linearGradient>
<linearGradient id="paint10_linear_1247_67386" x1="-1.8192" y1="56.9383" x2="180.834" y2="56.4235" gradientUnits="userSpaceOnUse">
<stop stop-color="#5213B9"/>
<stop offset="1" stop-color="#58595B"/>
</linearGradient>
<linearGradient id="paint11_linear_1247_67386" x1="-1.81865" y1="56.9661" x2="180.833" y2="56.4513" gradientUnits="userSpaceOnUse">
<stop stop-color="#5213B9"/>
<stop offset="1" stop-color="#58595B"/>
</linearGradient>
<linearGradient id="paint12_linear_1247_67386" x1="-1.81846" y1="56.9541" x2="180.834" y2="56.4393" gradientUnits="userSpaceOnUse">
<stop stop-color="#5213B9"/>
<stop offset="1" stop-color="#58595B"/>
</linearGradient>
<linearGradient id="paint13_linear_1247_67386" x1="-1.8186" y1="56.9806" x2="180.834" y2="56.4658" gradientUnits="userSpaceOnUse">
<stop stop-color="#5213B9"/>
<stop offset="1" stop-color="#58595B"/>
</linearGradient>
<linearGradient id="paint14_linear_1247_67386" x1="-1.81856" y1="57.0005" x2="180.834" y2="56.4857" gradientUnits="userSpaceOnUse">
<stop stop-color="#5213B9"/>
<stop offset="1" stop-color="#58595B"/>
</linearGradient>
<linearGradient id="paint15_linear_1247_67386" x1="-1.81909" y1="57.0323" x2="180.833" y2="56.5175" gradientUnits="userSpaceOnUse">
<stop stop-color="#5213B9"/>
<stop offset="1" stop-color="#58595B"/>
</linearGradient>
<linearGradient id="paint16_linear_1247_67386" x1="-1.8189" y1="57.0575" x2="180.834" y2="56.5413" gradientUnits="userSpaceOnUse">
<stop stop-color="#5213B9"/>
<stop offset="1" stop-color="#58595B"/>
</linearGradient>
<linearGradient id="paint17_linear_1247_67386" x1="-1.81721" y1="57.0919" x2="180.834" y2="56.5771" gradientUnits="userSpaceOnUse">
<stop stop-color="#5213B9"/>
<stop offset="1" stop-color="#58595B"/>
</linearGradient>
<linearGradient id="paint18_linear_1247_67386" x1="-1.81712" y1="57.0946" x2="180.834" y2="56.5798" gradientUnits="userSpaceOnUse">
<stop stop-color="#5213B9"/>
<stop offset="1" stop-color="#58595B"/>
</linearGradient>
<linearGradient id="paint19_linear_1247_67386" x1="-1.81701" y1="57.1369" x2="180.834" y2="56.6207" gradientUnits="userSpaceOnUse">
<stop stop-color="#5213B9"/>
<stop offset="1" stop-color="#58595B"/>
</linearGradient>
<linearGradient id="paint20_linear_1247_67386" x1="-1.81756" y1="57.1567" x2="180.834" y2="56.6419" gradientUnits="userSpaceOnUse">
<stop stop-color="#5213B9"/>
<stop offset="1" stop-color="#58595B"/>
</linearGradient>
<linearGradient id="paint21_linear_1247_67386" x1="44.4062" y1="14.6345" x2="134.661" y2="0.233616" gradientUnits="userSpaceOnUse">
<stop stop-color="#5213B9"/>
<stop offset="1" stop-color="#58595B"/>
</linearGradient>
<linearGradient id="paint22_linear_1247_67386" x1="43.5342" y1="9.16532" x2="133.789" y2="-5.23554" gradientUnits="userSpaceOnUse">
<stop stop-color="#5213B9"/>
<stop offset="1" stop-color="#58595B"/>
</linearGradient>
<linearGradient id="paint23_linear_1247_67386" x1="43.328" y1="7.87806" x2="133.583" y2="-6.52424" gradientUnits="userSpaceOnUse">
<stop stop-color="#5213B9"/>
<stop offset="1" stop-color="#58595B"/>
</linearGradient>
<linearGradient id="paint24_linear_1247_67386" x1="43.4709" y1="8.77593" x2="133.727" y2="-5.62638" gradientUnits="userSpaceOnUse">
<stop stop-color="#5213B9"/>
<stop offset="1" stop-color="#58595B"/>
</linearGradient>
<linearGradient id="paint25_linear_1247_67386" x1="43.8986" y1="11.4563" x2="134.155" y2="-2.94605" gradientUnits="userSpaceOnUse">
<stop stop-color="#5213B9"/>
<stop offset="1" stop-color="#58595B"/>
</linearGradient>
<linearGradient id="paint26_linear_1247_67386" x1="44.4213" y1="14.7351" x2="134.677" y2="0.332762" gradientUnits="userSpaceOnUse">
<stop stop-color="#5213B9"/>
<stop offset="1" stop-color="#58595B"/>
</linearGradient>
<linearGradient id="paint27_linear_1247_67386" x1="44.896" y1="17.7108" x2="135.152" y2="3.30856" gradientUnits="userSpaceOnUse">
<stop stop-color="#5213B9"/>
<stop offset="1" stop-color="#58595B"/>
</linearGradient>
<linearGradient id="paint28_linear_1247_67386" x1="45.3234" y1="20.3871" x2="135.58" y2="5.98612" gradientUnits="userSpaceOnUse">
<stop stop-color="#5213B9"/>
<stop offset="1" stop-color="#58595B"/>
</linearGradient>
<clipPath id="clip0_1247_67386">
<rect width="180" height="60" fill="white"/>
</clipPath>
</defs>
</svg>
