<?xml version="1.0" encoding="UTF-8"?>
<svg id="Layer_2" data-name="Layer 2" xmlns="http://www.w3.org/2000/svg" viewBox="0 0 135.36 102.56">
  <g id="Layer_1-2" data-name="Layer 1">
    <g>
      <path d="M32.56,52.22c-2.28-3.72-3.6-8.1-3.6-12.79,0-13.54,10.98-24.52,24.52-24.52,5.08,0,9.8,1.54,13.71,4.19" style="fill: none; stroke: #2a918b; stroke-miterlimit: 10; stroke-width: 3px;"/>
      <path d="M60.26,27.27c2.6-4.66,6.67-8.39,11.59-10.55,3.01-1.32,6.35-2.06,9.85-2.06,13.54,0,24.52,10.98,24.52,24.52,0,1.23-.09,2.44-.27,3.62" style="fill: none; stroke: #2a918b; stroke-miterlimit: 10; stroke-width: 3px;"/>
      <path d="M43.66,31.45s9.07,18.9,24.69,6.3" style="fill: none; stroke: #2a918b; stroke-miterlimit: 10; stroke-width: 3px;"/>
      <path d="M51.98,40.52s-7.56,7.31-2.52,14.11" style="fill: none; stroke: #2a918b; stroke-miterlimit: 10; stroke-width: 3px;"/>
      <path d="M49.96,66.23s12.35-3.28,16.88,6.8" style="fill: none; stroke: #2a918b; stroke-miterlimit: 10; stroke-width: 3px;"/>
      <path d="M59.53,66.48s.5-6.3,7.81-8.06" style="fill: none; stroke: #2a918b; stroke-miterlimit: 10; stroke-width: 3px;"/>
      <path d="M80.33,42.25c.96-2.76,3.58-4.75,6.67-4.75,3.9,0,7.05,3.16,7.05,7.05" style="fill: none; stroke: #2a918b; stroke-miterlimit: 10; stroke-width: 3px;"/>
      <path d="M38.4,77.67c-1.61.42-3.31.65-5.07.65-10.44,0-18.9-8.01-18.9-17.89,0-8.61,6.43-15.8,14.99-17.51" style="fill: none; stroke: #2a918b; stroke-miterlimit: 10; stroke-width: 3px;"/>
      <path d="M23.5,101.5s2.52-22.68,20.16-24.94" style="fill: none; stroke: #2a918b; stroke-miterlimit: 10; stroke-width: 3px;"/>
      <path d="M37.61,101.5s3.78-19.15,27.97-19.15h27.72c7.1,0,12.85-5.75,12.85-12.85s-5.75-12.85-12.85-12.85c-5.59,0-10.35,3.57-12.12,8.56" style="fill: none; stroke: #2a918b; stroke-miterlimit: 10; stroke-width: 3px;"/>
      <path d="M105.17,31.04c10.04,1.63,17.61,8.87,17.61,17.54s-6.99,15.34-16.44,17.33" style="fill: none; stroke: #2a918b; stroke-miterlimit: 10; stroke-width: 3px;"/>
      <path d="M10.91,101.5s0-8.82,3.53-14.11c0,0-15.37-6.05-12.6-28.98,0,0,2.27-13.86,13.61-22.93,0,0,5.54-40.31,48-30.24,0,0,32.38-14.61,49.26,13.86,0,0,21.16,4.82,21.16,32.39,0,0-.5,20.02-14.87,26.82,0,0-2.52,17.64-30.24,17.64,0,0-17.7-2.08-25.32,5.54" style="fill: none; stroke: #2a918b; stroke-miterlimit: 10; stroke-width: 3px;"/>
    </g>
  </g>
</svg>