<?xml version="1.0" encoding="UTF-8"?>
<svg id="Layer_2" data-name="Layer 2" xmlns="http://www.w3.org/2000/svg" viewBox="0 0 101.79 103">
  <g id="Layer_1-2" data-name="Layer 1">
    <g>
      <path d="M21.79,36.42s8.11,7.16,3.98,23.45c0,0,13.67.78,18.83,10.81,0,0,9.84-10.17,21.47-7.49,0,0-3.42-13.2,7.36-22.25,0,0-11.77-5.82-12.51-18.79,0,0-14.68,6-22.72-1.99,0,0-1.25,14.25-16.41,16.26Z" style="fill: none; stroke: #001965; stroke-linecap: round; stroke-linejoin: round; stroke-width: 3px;"/>
      <circle cx="47.07" cy="44.88" r="6.22" style="fill: none; stroke: #001965; stroke-linecap: round; stroke-linejoin: round; stroke-width: 3px;"/>
      <g>
        <path d="M1.5,30.48s9.2,1.85,20.29,5.94" style="fill: none; stroke: #001965; stroke-linecap: round; stroke-linejoin: round; stroke-width: 3px;"/>
        <path d="M2.19,39.29s6.89-2.63,9.49-6.2c0,0,1.35-5.96-3.66-9.32" style="fill: none; stroke: #001965; stroke-linecap: round; stroke-linejoin: round; stroke-width: 3px;"/>
      </g>
      <g>
        <path d="M8.18,72.52s7-6.25,16.94-12.66" style="fill: none; stroke: #001965; stroke-linecap: round; stroke-linejoin: round; stroke-width: 3px;"/>
        <path d="M15.63,77.26s2.03-7.09.74-11.31c0,0-3.96-4.67-9.65-2.67" style="fill: none; stroke: #001965; stroke-linecap: round; stroke-linejoin: round; stroke-width: 3px;"/>
      </g>
      <g>
        <path d="M43,91.76s-.05-9.39,1.71-21.08" style="fill: none; stroke: #001965; stroke-linecap: round; stroke-linejoin: round; stroke-width: 3px;"/>
        <path d="M51.48,89.31s-3.97-6.22-7.99-8.04c0,0-6.11-.12-8.38,5.47" style="fill: none; stroke: #001965; stroke-linecap: round; stroke-linejoin: round; stroke-width: 3px;"/>
      </g>
      <g>
        <path d="M94.39,36.54s-8.95,2.84-20.63,4.63" style="fill: none; stroke: #001965; stroke-linecap: round; stroke-linejoin: round; stroke-width: 3px;"/>
        <path d="M89.53,29.17s-4.75,5.64-5.3,10.02c0,0,1.7,5.87,7.71,6.38" style="fill: none; stroke: #001965; stroke-linecap: round; stroke-linejoin: round; stroke-width: 3px;"/>
      </g>
      <g>
        <path d="M74.3,5.29s-5.15,7.85-13.09,16.61" style="fill: none; stroke: #001965; stroke-linecap: round; stroke-linejoin: round; stroke-width: 3px;"/>
        <path d="M65.88,2.64s-.13,7.38,2.2,11.12c0,0,5.03,3.48,10.01.09" style="fill: none; stroke: #001965; stroke-linecap: round; stroke-linejoin: round; stroke-width: 3px;"/>
      </g>
      <g>
        <path d="M27.68,1.83s5.36,7.71,10.52,18.34" style="fill: none; stroke: #001965; stroke-linecap: round; stroke-linejoin: round; stroke-width: 3px;"/>
        <path d="M22.08,8.65s6.79,2.87,11.14,2.1c0,0,5.11-3.36,3.81-9.25" style="fill: none; stroke: #001965; stroke-linecap: round; stroke-linejoin: round; stroke-width: 3px;"/>
      </g>
      <path d="M66.07,63.19s8.89,9,17.06,13.77c8.17,4.77,12.98,12.22,9.25,24.54" style="fill: none; stroke: #001965; stroke-linecap: round; stroke-linejoin: round; stroke-width: 3px;"/>
      <path d="M84.44,97.68s5.9-6.09,9-7.04c0,0,5.56,2.95,6.85,6.14" style="fill: none; stroke: #001965; stroke-linecap: round; stroke-linejoin: round; stroke-width: 3px;"/>
    </g>
  </g>
</svg>